<?xml version="1.0" encoding="iso-8859-1"?>
<!-- Generator: Adobe Illustrator 19.0.0, SVG Export Plug-In . SVG Version: 6.00 Build 0)  -->
<svg version="1.1" id="Layer_1" xmlns="http://www.w3.org/2000/svg" xmlns:xlink="http://www.w3.org/1999/xlink" x="0px" y="0px"
	 viewBox="0 0 512 512" style="enable-background:new 0 0 512 512;" xml:space="preserve">
<path style="fill:#F37C4A;" d="M256,0C114.615,0,0,114.616,0,256c0,116.645,78.013,215.069,184.71,245.943L501.943,184.71
	C471.069,78.013,372.645,0,256,0z"/>
<path style="fill:#E64A55;" d="M512,256c0-24.741-3.522-48.657-10.07-71.287l-78.974-78.974L100.174,417.391l84.539,84.539
	C207.343,508.478,231.259,512,256,512C397.385,512,512,397.384,512,256z"/>
<rect x="244.87" y="116.87" style="fill:#FBC09B;" width="166.957" height="44.522"/>
<polygon style="fill:#FEEB5C;" points="211.478,153.6 389.565,417.391 411.826,417.391 411.826,172.522 "/>
<polygon style="fill:#FFF296;" points="256,154.713 100.174,172.522 100.174,417.391 122.435,417.391 256,250.435 "/>
<rect x="100.174" y="116.87" style="fill:#FFE2C4;" width="155.826" height="44.522"/>
<polygon style="fill:#F79E73;" points="256,105.739 231.688,116.87 256,128 422.957,128 422.957,105.739 "/>
<rect x="89.043" y="105.739" style="fill:#FBC09B;" width="166.957" height="22.261"/>
<polygon style="fill:#F79E73;" points="256,150.261 231.688,161.391 256,172.522 422.957,172.522 422.957,150.261 "/>
<rect x="89.043" y="150.261" style="fill:#FBC09B;" width="166.957" height="22.261"/>
<polygon style="fill:#592C1A;" points="256,194.783 236.551,300.522 256,406.261 389.565,395.13 389.565,372.87 378.435,361.739 
	389.565,350.609 389.565,194.783 "/>
<polygon style="fill:#7A3E25;" points="256,194.783 122.435,194.783 122.435,350.609 133.565,361.739 122.435,372.87 
	122.435,395.13 256,406.261 "/>
<path style="fill:#E64A55;" d="M306.449,285.039L256,217.524l-25.237,121.857L256,406.261c39.026,0,70.665-31.641,70.665-70.665
	v-58.453L306.449,285.039z"/>
<path style="fill:#F37C4A;" d="M205.551,285.039l-20.217-7.897v58.453c0.001,39.026,31.64,70.666,70.666,70.666V217.524
	L205.551,285.039z"/>
<path style="fill:#FFF296;" d="M285.814,325.072L256,285.574l-12.619,61.627L256,384c20.527,0,37.226-16.508,37.226-36.799
	C293.226,339.074,290.662,331.421,285.814,325.072z"/>
<path style="fill:#FFF9CF;" d="M226.186,325.072c-4.848,6.35-7.412,14.002-7.412,22.13c0,20.291,16.699,36.799,37.226,36.799
	v-98.426L226.186,325.072z"/>
<path style="fill:#7A3E25;" d="M389.565,372.87v-22.261H256l-24.312,11.13L256,372.87h17.809v22.261H256l-24.312,11.13L256,417.391
	h133.565V395.13h-35.617V372.87H389.565z M331.687,395.13H296.07V372.87h35.617V395.13z"/>
<path style="fill:#A65A3A;" d="M256,372.87v-22.261H122.435v22.261h35.617v22.261h-35.617v22.261H256V395.13h-17.809V372.87H256z
	 M215.93,395.13h-35.617V372.87h35.617V395.13z"/>
<g>
</g>
<g>
</g>
<g>
</g>
<g>
</g>
<g>
</g>
<g>
</g>
<g>
</g>
<g>
</g>
<g>
</g>
<g>
</g>
<g>
</g>
<g>
</g>
<g>
</g>
<g>
</g>
<g>
</g>
</svg>
